<svg xmlns="http://www.w3.org/2000/svg" viewBox="0 0 64 64">
  <defs>
    <linearGradient id="g" x1="0" y1="0" x2="1" y2="1">
      <stop offset="0" stop-color="#4f8ef7"/>
      <stop offset="1" stop-color="#7b5cf0"/>
    </linearGradient>
  </defs>
  <rect x="2" y="2" width="60" height="60" rx="16" fill="url(#g)"/>
  <path d="M32 14c-10.5 0-19 7.2-19 16 0 4.5 2.2 8.6 5.8 11.5-.3 2.7-1.3 5.2-3 7.2 3.6-.4 6.9-1.7 9.5-3.6 2.1.6 4.4.9 6.7.9 10.5 0 19-7.2 19-16s-8.5-16-19-16z" fill="#fff"/>
  <circle cx="24" cy="30" r="3" fill="#5b74f0"/>
  <circle cx="32" cy="30" r="3" fill="#5b74f0"/>
  <circle cx="40" cy="30" r="3" fill="#5b74f0"/>
</svg>
